<svg xmlns="http://www.w3.org/2000/svg" xmlns:xlink="http://www.w3.org/1999/xlink" id="Livello_1" x="0px" y="0px" viewBox="0 0 2156 647.4" xml:space="preserve">
<g>
	<g>
		<path d="M2173.4,647.4c-108.1-46.7-633.4-243.7-746.6-275.7c-268.6-75.9-548.4-108-827.2-98.9c-116.6,3.8-232.6,15.2-348.2,30.2    c-37.2,4.8-74.4,10.3-111.7,14.2c-16,1.7-38.2,6.6-53.7,0.5c-16.1-6.4-1.7-33.6-1.7-33.6c-0.6-1.1-59.2,4.8-64.7-23    c-2.5-12.8,14-33.3,14-33.3c-0.3-1.5-30.1-14-33.1-29.7C-5,170,45.5,147.4,45.5,147.4c0-0.9-19.5-12.5-20.2-23.2    c-0.6-11,9.5-19.4,17.7-24.9c24.3-16.5,55-24.1,83-30.7C301.8,27,484.3,5.8,665.4,1c285.3-7.6,571.6,28.7,846,107.2    c122.6,35.1,657.1,235.8,773.8,287.3C2247.9,479.4,2210.6,563.4,2173.4,647.4z"></path>
	</g>
	<g>
		<path fill="#DB0059" d="M276.9,126.5c-8.3,1.4-16.5,2.8-24.8,4.3c-1.6-9-3.2-18.1-4.9-27.1c-1.3-8.9-7.8-14.6-16.9-13    c-9,1.7-13.1,9.4-11.1,18.1c1.5,7.9,3,15.7,4.5,23.6c2.3,11.7,13.1,18.7,23.5,22.5c5.7,2.1,11.4,4.4,17,6.9    c14,6.2,21.2,18.3,24.7,32.7c1.4,8.3,2.8,16.6,4.2,24.9c4,22.9-9.3,37.7-31.3,41.8c-22,4.1-39.6-5.1-44-27.9    c-1.8-9-3.6-18.1-5.4-27.1c8-1.6,16.1-3.2,24.1-4.7c1.7,9,3.4,18,5.2,27.1c1.2,8.4,7.6,14.5,16.2,12.9c8.6-1.7,12.4-9.6,10.5-17.8    c-1.4-7.9-2.8-15.8-4.2-23.6c-2.1-11.7-12.5-19-23-22.8c-5.7-2.1-11.4-4.3-17-6.8c-14-6-21.6-17.7-25.6-31.9    c-1.7-8.3-3.3-16.6-5-24.9c-5-23.9,10.3-38.5,32.7-42.6c22.4-4.1,41.9,4.1,45.8,28.1C273.8,108.2,275.4,117.3,276.9,126.5z"></path>
		<path fill="#DB0059" d="M349.8,72.8c-11.1,1.6-22.2,3.2-33.2,4.9c3.3,21.4,6.5,42.9,9.8,64.3c10.7-1.6,21.4-3.2,32.1-4.7    c0.9,6.6,1.8,13.1,2.8,19.7c-10.6,1.5-21.2,3.1-31.8,4.7c3.3,21.6,6.6,43.1,9.9,64.7c10.5-1.6,20.9-3.1,31.4-4.6    c0.9,6.6,1.9,13.3,2.8,19.9c-18.6,2.6-37.1,5.4-55.7,8.4c-10.2-62.7-20.3-125.4-30.5-188c19.9-3.2,39.8-6.2,59.8-9    C347.9,59.6,348.8,66.2,349.8,72.8z"></path>
		<path fill="#DB0059" d="M471.4,229.8c-7.5,0.8-15,1.6-22.5,2.4c-7-19.5-14-39-21.1-58.4c-5.8,0.7-11.6,1.4-17.5,2.1    c2.4,20,4.9,40,7.3,60c-8.2,1-16.4,2-24.6,3.1c-8.3-63-16.6-125.9-25-188.9c15-2,30-3.8,45-5.6c9.3-1.2,22.2-1.9,29.4,4.8    c7.2,6.7,8.6,17.6,10,27.1c2,19.7,4,39.4,6.1,59.1c1.3,11.1-1.1,23.1-10.6,30C455.9,187,463.7,208.4,471.4,229.8z M408,157.3    c4.9-0.6,7.3-0.9,12.2-1.5c5.8-0.7,9.6-2.2,11.5-4.6c1.8-2.3,2.4-6.6,1.7-12.8c-2.2-19.8-4.4-39.6-6.7-59.4    c-0.7-6.1-2.2-10.3-4.7-12.2c-2.4-1.8-6.6-2.4-12.5-1.7c-5,0.6-7.5,0.9-12.6,1.5C400.6,96.9,404.3,127.1,408,157.3z"></path>
		<path fill="#DB0059" d="M460.4,39.5c8.5-0.8,17-1.6,25.5-2.4c11.7,55.4,23,110.9,34,166.5c1.5-0.1,2.2-0.2,3.7-0.3    c1.9-56.6,4.3-113.2,7-169.8c8.5-0.6,16.9-1.2,25.4-1.7c-4.1,63.9-7.7,127.7-10.7,191.7c-14.5,1.1-29,2.2-43.5,3.5    C488.5,164.3,474.7,101.8,460.4,39.5z"></path>
		<path fill="#DB0059" d="M634.8,47.9c-11.1,0.4-22.3,0.9-33.4,1.4c1,21.7,2.1,43.3,3.1,65c10.7-0.5,21.5-0.9,32.2-1.3    c0.2,6.6,0.5,13.3,0.7,19.9c-10.7,0.4-21.3,0.8-32,1.3c1,21.8,2.1,43.6,3.1,65.3c10.5-0.5,21.1-0.9,31.6-1.3    c0.2,6.7,0.5,13.4,0.7,20.1c-18.7,0.7-37.4,1.6-56,2.6c-3.6-63.4-7.2-126.8-10.9-190.2c20-1.1,40.1-2,60.1-2.8    C634.3,34.6,634.5,41.2,634.8,47.9z"></path>
		<path fill="#DB0059" d="M773.9,26.5c-0.8,52.2-1.6,104.3-2.3,156.5c-0.2,23.4-16.2,35.5-38.6,35.5c-22.4,0-38.3-12.1-38.5-35.5    c-0.8-52.2-1.5-104.3-2.3-156.5c8.8-0.1,17.7-0.2,26.5-0.3c0.3,52.1,0.5,104.2,0.8,156.3c-0.3,8.4,4.7,15.7,13.5,15.7    c8.8,0,13.7-7.4,13.4-15.7c0.3-52.1,0.6-104.2,0.8-156.3C756.1,26.3,765,26.3,773.9,26.5z"></path>
		<path fill="#DB0059" d="M790.8,217.3c1.4-63.5,2.9-127,4.3-190.4c11.7,0.3,23.3,0.6,35,1c9.4,51,18.2,102.1,26.4,153.2    c0.7,0,1.1,0.1,1.8,0.1c0.1-6.7,0.2-13.4,0.3-20.1c2.1-43.9,4.2-87.8,6.3-131.7c8.2,0.4,16.4,0.8,24.5,1.3    c-3.6,63.4-7.2,126.8-10.8,190.2c-10.8-0.6-21.7-1.1-32.5-1.6C837.9,168,829.1,117,819.7,66c-0.7,0-1.1,0-1.9-0.1    c0,6.7,0,13.4,0,20.2c-1.4,43.9-2.8,87.9-4.2,131.8C806.1,217.7,798.5,217.5,790.8,217.3z"></path>
		<path fill="#DB0059" d="M960.6,226.7c-0.3-13-0.6-26-0.9-38.9c-11.2-1-22.3-1.9-33.5-2.7c-2.4,12.8-4.8,25.5-7.1,38.3    c-7.9-0.6-15.8-1.1-23.7-1.6c11.6-62.9,23.7-125.7,36.4-188.5c15.5,1.1,31.1,2.4,46.6,3.7c2.5,63.9,4.4,127.9,5.8,191.9    C976.3,228.2,968.5,227.4,960.6,226.7z M930.2,165.2c9.6,0.7,19.2,1.5,28.9,2.3c-1.1-36.9-2.4-73.8-3.8-110.6    c-1.5-0.1-2.3-0.2-3.9-0.3C944.1,92.8,937.1,129,930.2,165.2z"></path>
		<path fill="#DB0059" d="M1034.1,234.3c0.8-6.7,1.6-13.3,2.3-20c21.8-47.2,44.4-94.1,67.8-140.6c0.1-0.9,0.2-1.4,0.3-2.3    c-16-2.2-32.1-4.2-48.2-6.1c0.8-6.6,1.6-13.3,2.4-19.9c24.7,3,49.4,6.2,74.1,9.8c-1,6.6-1.9,13.2-2.9,19.8    c-24,46.3-47.3,92.9-69.8,140c-0.1,0.9-0.2,1.3-0.3,2.2c15.8,2,31.6,4.2,47.4,6.4c-1,6.6-1.9,13.3-2.9,19.9    C1081,240.2,1057.6,237.1,1034.1,234.3z"></path>
		<path fill="#DB0059" d="M1183.7,256.3c0.8-13,1.7-25.9,2.5-38.9c-11-1.9-22.1-3.8-33.1-5.6c-3.5,12.5-7,25-10.4,37.5    c-7.8-1.3-15.7-2.5-23.5-3.7c17-61.7,34.6-123.2,52.6-184.6c15.4,2.5,30.8,5.1,46.1,7.8c-3.1,63.9-6.7,127.8-10.8,191.6    C1199.2,259.1,1191.4,257.7,1183.7,256.3z M1158.6,192.4c9.5,1.6,19.1,3.2,28.6,4.8c2.1-36.8,4-73.7,5.8-110.5    c-1.5-0.3-2.3-0.4-3.8-0.6C1178.8,121.4,1168.6,156.9,1158.6,192.4z"></path>
		<path fill="#DB0059" d="M1223.4,263.7c12-62.3,24.1-124.7,36.1-187c13.6,2.6,27.2,5.4,40.7,8.2c-3.9,53.4-8.2,106.7-12.9,160    c0.7,0.2,1.1,0.2,1.9,0.4c17.8-50.4,36-100.8,54.6-151c13.5,3.1,27,6.2,40.5,9.5c-14.9,61.7-29.8,123.5-44.7,185.2    c-7.4-1.8-14.9-3.6-22.3-5.3c11.9-51.5,23.9-102.9,35.8-154.4c-1-0.2-1.5-0.3-2.5-0.6c-18.8,49.9-37.2,99.8-55.2,150    c-9.2-2-18.3-4-27.5-6c4.4-53.1,8.4-106.2,12-159.4c-1-0.2-1.5-0.3-2.5-0.5c-10.5,51.8-21,103.5-31.4,155.3    C1238.4,266.6,1230.9,265.1,1223.4,263.7z"></path>
		<path fill="#DB0059" d="M1448.8,120.1c9.1,2.4,21.3,6.4,25.6,15.3c4.3,8.9,1.6,19.6-0.7,28.9c-6.6,23.5-13.2,47-19.8,70.6    c-2.9,9-6,19.4-14.1,24.9c-7.9,5.4-19.7,3-28.4,0.6c-5.7-1.5-11.4-3-17.2-4.5c-3.8,14.6-7.6,29.3-11.4,43.9c-8-2.1-16-4.1-24-6.1    c15.4-61.6,30.7-123.2,46.1-184.8C1419.6,112.5,1434.2,116.2,1448.8,120.1z M1448.9,157.2c1.6-6,1.7-10.4,0-13.1    c-1.6-2.6-5.3-4.7-11-6.2c-4.9-1.3-7.3-1.9-12.2-3.2c-8.8,33.9-17.6,67.9-26.4,101.8c4.7,1.2,7.1,1.8,11.8,3.1    c10,3.2,16.4-1.1,18.6-11.2C1436.1,204.7,1442.5,180.9,1448.9,157.2z"></path>
		<path fill="#DB0059" d="M1503.7,334.3c2.5-12.7,4.9-25.5,7.4-38.2c-10.8-3.3-21.5-6.6-32.3-9.8c-5.1,12-10.1,23.9-15.1,35.9    c-7.6-2.3-15.3-4.5-23-6.6c24.7-59,50-117.8,75.7-176.4c15,4.4,30,9,45,13.6c-11.1,63-22.8,125.9-35,188.8    C1518.8,339,1511.3,336.6,1503.7,334.3z M1486.8,267.6c9.3,2.8,18.6,5.6,27.9,8.5c6.7-36.3,13.3-72.6,19.7-108.9    c-1.5-0.5-2.2-0.7-3.7-1.1C1515.9,199.8,1501.3,233.7,1486.8,267.6z"></path>
		<path fill="#DB0059" d="M1573.7,223.1c3-9.3,6.1-18.6,9.1-27.9c7.5-23.5,28.4-28.4,50.1-21c21.8,7.4,35.6,24.1,27,47.4    c-2.9,8-5.7,16-8.6,24c-4,11.2-10.7,23.2-21.4,28.9c-3.9,2.1-7.7,3.9-11.1,5.4c-8.1,3.5-14.4,10.2-17.3,18.6    c-2.3,6.6-4.6,13.3-6.9,19.9c-7.8-2.7-15.7-5.4-23.6-8c2.5-7.5,5-15,7.5-22.4c4-10.1,9.1-20.7,19.3-25.6c3.5-1.7,7.1-3.3,10.7-4.9    c8.7-3.8,14.8-11.7,17.8-20.6c2.8-8,5.6-16,8.4-24.1c3.2-8.4,0.4-16.6-8.4-19.6c-8.7-2.9-16,1.7-18.6,10.3    c-3.1,9.2-6.2,18.5-9.3,27.7C1590.2,228.6,1582,225.8,1573.7,223.1z M1558.8,340.6c2.7-7,10.7-10.2,17.6-7.9    c7,2.4,11.5,9.8,9.1,17c-1.2,3.5-3.7,6-6.9,7.6C1568.6,362.1,1554.5,351.7,1558.8,340.6z"></path>
	</g>
</g>
<g>
</g>
<g>
</g>
<g>
</g>
<g>
</g>
<g>
</g>
<g>
</g>
</svg>